<svg xmlns="http://www.w3.org/2000/svg" viewBox="0 0 1440 320"><path fill="#f3f4f5" fill-opacity="1" d="M0,128L34.3,138.7C68.6,149,137,171,206,197.3C274.3,224,343,256,411,272C480,288,549,288,617,277.3C685.7,267,754,245,823,213.3C891.4,181,960,139,1029,154.7C1097.1,171,1166,245,1234,277.3C1302.9,309,1371,299,1406,293.3L1440,288L1440,320L1405.7,320C1371.4,320,1303,320,1234,320C1165.7,320,1097,320,1029,320C960,320,891,320,823,320C754.3,320,686,320,617,320C548.6,320,480,320,411,320C342.9,320,274,320,206,320C137.1,320,69,320,34,320L0,320Z"></path></svg>